/* XPM */
static char *shader[] = {
/* width height num_colors chars_per_pixel */
"    46    46       95            2",
/* colors */
".. c #040204",
".# c #94760c",
".a c #4c3e04",
".b c #7c5a04",
".c c #6c5204",
".d c #d4b244",
".e c #b4922c",
".f c #644604",
".g c #8c6a04",
".h c #442e04",
".i c #745a04",
".j c #141204",
".k c #a47e0c",
".l c #5c4604",
".m c #745204",
".n c #7c6204",
".o c #f4d264",
".p c #64521c",
".q c #3c2e04",
".r c #9c7204",
".s c #443604",
".t c #0c0a04",
".u c #9c7604",
".v c #5c4204",
".w c #342604",
".x c #c4a23c",
".y c #644e04",
".z c #947204",
".A c #241a04",
".B c #8c6604",
".C c #543e04",
".D c #7c621c",
".E c #fcde74",
".F c #543a04",
".G c #9c7614",
".H c #6c5604",
".I c #dcbe54",
".J c #946a04",
".K c #b48e24",
".L c #5c4a04",
".M c #6c5214",
".N c #4c3604",
".O c #ccaa44",
".P c #6c4e04",
".Q c #544214",
".R c #0c0604",
".S c #845e04",
".T c #2c2204",
".U c #ac861c",
".V c #1c1204",
".W c #846204",
".X c #fcd26c",
".Y c #140e04",
".Z c #9c7a0c",
".0 c #3c2a04",
".1 c #cca63c",
".2 c #2c1e04",
".3 c #544204",
".4 c #ecc65c",
".5 c #745e14",
".6 c #6c5614",
".7 c #040604",
".8 c #7c5e04",
".9 c #c49e34",
"#. c #644a04",
"## c #8c6e04",
"#a c #443204",
"#b c #a47e14",
"#c c #5c460c",
"#d c #745604",
"#e c #3c3204",
"#f c #443a0c",
"#g c #0c0e04",
"#h c #9c760c",
"#i c #342a04",
"#j c #c4a63c",
"#k c #644e0c",
"#l c #94720c",
"#m c #241e04",
"#n c #7c6224",
"#o c #fce274",
"#p c #9c7a14",
"#q c #6c560c",
"#r c #e4be54",
"#s c #946e04",
"#t c #a4821c",
"#u c #5c4a0c",
"#v c #4c3a04",
"#w c #ac8a1c",
"#x c #1c1604",
"#y c #846604",
"#z c #fcd66c",
"#A c #54420c",
"#B c #745e1c",
"#C c #6c561c",
/* pixels */
"............................................................................................",
"...........................................t.Y.t.Y.t........................................",
"...................................7.Y.q.s.f.c.c.y.y.s#i.A..................................",
".............................j.A.3.i.8.B#y.W.W.S.8.b#d#d#..3#v#m.t..........................",
".........................7.w.8.g#s.J.g.g.B#y.W.n.8.8.b.i#d.m.P#..v#e.Y......................",
".......................w.i.g#s#s.J.g.g.B.B#y.W.W.W.8.8.b.i#d.c.P.y#..C.2.7..................",
"...................t.N##.r#s#s#s##.g.g.g#y.B#y.W.W.8.8.b.i.i#d.c.P#..L.v.q.j................",
".................t.l.g.r.z#s.z#s.g.J.g.B.B.B#y.W.W.W.8.8.b#d#d.c.c.y#..l.l.s#g..............",
"..............#g.y#s.r.z#s#s#s#s.g##.g.B#y.B#y.W.W.W.8.8.b.i#d#d.c.P#..L.v#k.p#m............",
".............V#d.z.r.z.z#s#s###s##.J.g.g.g#y.B#y.W.W.S.8.8.b#d#d.c.P.P#..l.3#A.Q.Y..........",
".............N#s.r.z.z.r#s#s#s#s#s#s##.g.g.B#y.W.W.W.n.8.b.i.i#d.c.c.y#..l.v.C.a#m..........",
"...........T#y.z.z#s#s#s#s.z.u#h.Z#h.z.J.g.B.B#y.W.W.8.8.8.b#d#d.m.c.P#..l.v.C#v#a.Y........",
".........R.i.r#s#s.r#s#s.#.k.U#w.e#w#b#l##.g#y.W.W.W.8.8.b.i.i#d.c.c.P#..l.l.3.F.s.w........",
".......7.N.g#s#s#s#s#s.z.k.K.1.d.d.x.K#p.z.g#y.W.W.n.S.8.b.b#d#d.c.c.P.y.f.l.C.C.s.q.V......",
".......V#y#s.z#s#s#s#s.u.U#j.4.o.o#r.9#t#h.g.B.W.W.n.8.8.b.i#d#d.c.c.y#..f.l.3.C.N#a.w#g....",
".......w.g#s#s#s#s###s.Z#w.d.X#o.E#r.x#t.G.g#y.W.W.S.8.8.b.i#d#d.c.c.P#..L.v.3.C.s#a#i#x....",
"......#v#s#s.g##.g.J.z.Z.K.d.o.E#z#r.9#t.#.g#y.W.8.8.8.b.i#d#d.c.c.P.y#..f.l.C.C#v#a.0.T.7..",
"....#g.b.g.g.g.J.g.g#s#h.U.1.I.4.I.O.e#p#s.g.W.n.S.8.8.b.i#d#d.m.c.c.P#..l.v.3.C.N#a.0.w.Y..",
".....2#y.g.J.g.g.g.g.g.z#b#w.9.9.9.e#p#l.g#y.W.S.8.8.b.i.i#d#d.c.P.y#.#..l.l.C.C.s#a#i.w.V..",
"....#a#y.g.B.g.B.B.g.g#s#l#p#t#t#t#p#l.g#y.W.W.8.8.8.b.b#d#d.c.c.c.P.y#..l.v.C.a.N#a.q.w#m..",
".....s.B.B#y.B#y.g.B.g.g#s#l.G.#.##s.g#y#y.W.8.8.8.b.i.i#d#d.c.c.y.y#..l.l.3.C.F.s#a.0#i.2..",
"...7.v.W#y.W#y.B.B#y.B.B.g.g.g.g.g.g#y.W.W.W.8.8.b.b.i#d#d.c.c.P.P#.#..l.v.3.C#v.N#e.0#i.T..",
"...R.3.W.W.W.B#y#y.B#y#y.B#y#y.B#y.W.W.8.n.8.8.b.i.i#d#d.c.m.c.P.y#..f.l.v.C.C#v#a.q.0#i.w.7",
"..#g.P.8.W.W.W.W.W#y.W.W#y.W.W.W.W.S.n.S.8.8.b.i.b#d#d#d.c.c.P.y#.#..L.v.3.C#v.N#a.q.0#i.w.R",
"...t.P.8.8.8.W.W.W.W.W.W.W.W.W.n.n.8.8.8.8.b.b.i#d#d#d.c.c.P.y.y#..L.l.v.C.C#v.s#a.q.0.0.w.7",
"...R.3.b.8.8.S.n.W.W.W.W.W.W.8.W.8.S.8.8.b.b.i.i#d#d.c.c.c.c.P#.#..f.l.v.C#v#v.N#e.q.0#i.w.R",
"....#e#d.b.8.8.8.8.8.8.8.8.8.8.8.8.b.8.i.i.i#d#d#d.c.m.c.P.y.P.y#..l.l.C.C#v.s#a.q.0.q.0.T..",
".....w#d.i.b.b.8.8.8.S.8.8.8.8.8.8.b.b#d.b#d#d.c.m.c.c.c.c.c.c.y.y.L.l.3#v.N.s#a.0.q.0.q#m..",
".....j.y#d#d.i.b.b.8.b.8.b.b.b.i.b.i.i#d#d#d.c#d.c.c.P.c.c#q.6.6.M#k.l.C#v.s#a.q.q.0.q.q#x..",
".....R.v.c#d#d.i.i.i.b.i.i.b.i.i#d#d#d#d#d.c.c.c.P.P.y.c#q.5.5#B.5.M#u.C#v#a#a.q.q.q.q.0.Y..",
"......#e.c.m#d#d#d.b#d.i.b#d#d#d#d#d#d.c.c.c.c.P.y.P.y.c.6.5.D#n#B.p#u.C.s#a.q.q.0.q.q.0#g..",
".......T#..P.c.c#d.H#d#d#d#d#d#d#d.c.c.c.c.P.P.P#..y.y.c.6#B#n#n#B.p#c#v#a.q.q.q.q.q.q.T....",
".......t.3#..c.P.c.c.m.c.c.c.c.c.c.c.c.P.P.y.y#.#.#.#..y.M.5#B#B.p.p.3#f#a.q.h.q.h.q.0.Y....",
".........q.f.y.P.P.c.c.c.c.c.c.c.P.c.P.y.P.y#..L#..L.l.L.y.p#C.p#u#c.a#a.q.q.q.q.q.q.T.7....",
".........t#v.l#..y#..P.P.P.P.P.y.P.y#..y#.#..f.l.l.v.l.l.l#u#u#u#A.a#a.h.q.h.q.h.q.w.R......",
"..........#m.v.l.L#.#.#.#.#..y#.#.#.#..L.f.l.l.l.v.v.3.C.C.C.C#v.s.s.q#e.q.q.h#e.q#x........",
"...........7.q.F.v.v.l.L.L.f.L.f.l.l.l.l.l.v.v.3.C.C.F#v#v#v.s#a#a.q.h.q.h.q.q.q.T.7........",
".............t.w.F.3.3.v.v.l.v.l.l.v.v.v.v.3.C.C.C#v#v#v.s#a#a.h.q.q.q.h#e.q#a.w.7..........",
"..............#g.q.F.C.C.3.3.v.3.v.3.C.C.C.C.C#v#v#v.N.s#a#a.q.q.q.q.q.q.h.q.q#x............",
".................Y#i.s#v.F#v.C.F.C.F.C.C#v#v#v.N.N#a#a.h.q.q.q.q.q.q.h#e.q.w#x..............",
"...................7.A.0.s.N.N#f.N#v.s.N.s.N.s#a#e#a.q.q.0.q.q.q.h#e.h.q.T.R................",
".......................Y.T.q.q#a#a#a#a#a#a#a.q.q.q.0.0.q.0.q.q.q.q.q.w#x....................",
"...........................V.T#i#i.q.0#i.0#i.0#i.0.q#i.0.q.q.0.q#i.T.R......................",
".............................Y#x.2.w.w#i#i#i#i.0#i.0.0.q.0.q.0.w.Y.7........................",
"...................................t.V#m.A.T.w.w#i.w.T.A#x.Y.t..............................",
".............................................7.R.7.7........................................"
};
